<svg width="128" height="128" viewBox="0 0 128 128" fill="none" xmlns="http://www.w3.org/2000/svg">
<path d="M16 96.2389V32H35.7117C41.8716 32 46.7701 33.496 50.4074 36.4879C54.1034 39.4799 55.9513 43.4985 55.9513 48.5437C55.9513 52.0637 55.0127 55.0556 53.1354 57.5196C51.3167 59.9249 48.8234 61.5088 45.6555 62.2715C49.2341 63.0341 52.0794 64.8234 54.1914 67.6394C56.362 70.3967 57.4473 73.8286 57.4473 77.9352C57.4473 81.6312 56.5673 84.8578 54.8073 87.6151C53.106 90.3723 50.7007 92.5136 47.5915 94.039C44.5409 95.5056 40.9036 96.2389 36.6797 96.2389H16ZM26.7358 58.4876H35.5357C38.4103 58.4876 40.6982 57.7249 42.3996 56.1996C44.1009 54.6156 44.9515 52.4743 44.9515 49.7757C44.9515 47.1357 44.1009 45.0531 42.3996 43.5278C40.7569 41.9438 38.469 41.1518 35.5357 41.1518H26.7358V58.4876ZM26.7358 87.0871H35.9757C39.2023 87.0871 41.7249 86.2364 43.5435 84.5351C45.4208 82.7751 46.3595 80.3992 46.3595 77.4072C46.3595 74.4153 45.4208 72.01 43.5435 70.1914C41.7249 68.3141 39.2023 67.3754 35.9757 67.3754H26.7358V87.0871Z" fill="url(#paint0_linear_693_42)"/>
<path d="M68.6767 96.2389V32H79.6765V58.2236H87.2444L99.4762 32H111.356L96.9243 62.6235L112.06 96.2389H99.8282L87.1564 67.8154H79.6765V96.2389H68.6767Z" fill="url(#paint1_linear_693_42)"/>
<defs>
<linearGradient id="paint0_linear_693_42" x1="16" y1="63.7789" x2="112.06" y2="64.46" gradientUnits="userSpaceOnUse">
<stop stop-color="#52719B"/>
<stop offset="0.5" stop-color="#7252FF"/>
<stop offset="1" stop-color="#DC52FF"/>
</linearGradient>
<linearGradient id="paint1_linear_693_42" x1="16" y1="63.7789" x2="112.06" y2="64.46" gradientUnits="userSpaceOnUse">
<stop stop-color="#52719B"/>
<stop offset="0.5" stop-color="#7252FF"/>
<stop offset="1" stop-color="#DC52FF"/>
</linearGradient>
</defs>
</svg>
