<svg width="64" height="64" viewBox="0 0 64 64" fill="none" xmlns="http://www.w3.org/2000/svg">
<path d="M63.5574 21.3944C62.1738 30.241 57.7583 38.3 51.0964 44.1375C44.4345 49.9751 35.9583 53.2125 27.176 53.2739C25.3974 53.3445 23.6162 53.2351 21.8587 52.9475C18.1833 52.3107 14.8331 50.4077 12.3669 47.556C9.90065 44.7043 8.46758 41.0762 8.3067 37.277C8.32255 33.0266 9.98137 28.9541 12.923 25.9437C15.8647 22.9333 19.8517 21.2279 24.0186 21.1978C28.1854 21.1677 32.1958 22.8154 35.1789 25.783C38.162 28.7507 39.8772 32.7988 39.9521 37.0485C40.0187 39.7224 38.8827 42.0698 36.5467 42.1378C34.0507 42.1378 32.8827 40.3208 32.8827 37.8754V31.0752C32.8842 29.975 32.4587 28.9188 31.6992 28.1375C30.9397 27.3562 29.908 26.9132 28.8294 26.9053H23.24C21.6147 26.8944 20.0126 27.2991 18.58 28.0824C17.1475 28.8657 15.9302 30.0027 15.0393 31.3894C14.1485 32.7762 13.6125 34.3685 13.4803 36.021C13.3481 37.6734 13.6239 39.3333 14.2826 40.8491C14.9413 42.3648 15.9617 43.688 17.2508 44.6978C18.5399 45.7077 20.0566 46.372 21.6621 46.63C23.2677 46.888 24.9111 46.7316 26.4421 46.1749C27.9732 45.6183 29.3431 44.6792 30.4267 43.4435L30.6214 43.1443L30.8187 43.4734C31.4906 44.4048 32.3778 45.1524 33.4013 45.6498C34.4248 46.1471 35.553 46.3787 36.6854 46.324C38.7041 46.1745 40.5856 45.2261 41.9283 43.6812C43.271 42.1362 43.9685 40.1172 43.8721 38.055C43.8919 36.2847 43.6976 34.5187 43.2934 32.797C42.2599 27.9317 39.4964 23.6292 35.5362 20.7198C31.5759 17.8103 26.6996 16.5001 21.8481 17.042C16.9967 17.5838 12.5138 19.9393 9.26466 23.654C6.01549 27.3686 4.23023 32.1791 4.25337 37.1573C4.31522 42.4344 6.38032 47.4816 10.0146 51.2378C13.6488 54.9941 18.5692 57.1669 23.7414 57.2996C23.7414 57.2996 25.2054 57.4356 26.8534 57.3948C34.8748 57.3434 42.7152 54.9579 49.4534 50.5184C49.5494 50.4504 49.6454 50.5864 49.5814 50.6843C46.301 54.2886 42.2899 57.1202 37.8272 58.9819C33.3646 60.8436 28.5577 61.6906 23.7414 61.4641C20.5926 61.5225 17.4649 60.9297 14.5469 59.7214C11.6289 58.5131 8.98109 56.7144 6.7632 54.4338C4.54532 52.1532 2.80334 49.4379 1.64234 46.4518C0.481341 43.4657 -0.0746085 40.2707 0.0080296 37.0594C0.00957459 33.2311 0.886559 29.4559 2.56928 26.0339C4.252 22.6119 6.69406 19.6374 9.70137 17.3469C13.7428 14.3115 18.6266 12.6671 23.6454 12.652H31.1467C34.0771 12.6498 36.975 12.0251 39.6558 10.8178C42.3365 9.6105 44.7414 7.84702 46.7174 5.63964C46.7589 5.59262 46.814 5.56024 46.8747 5.54716C46.9362 5.53382 47.0001 5.54057 47.0576 5.56645C47.115 5.59233 47.163 5.63603 47.1947 5.69132C47.2263 5.74637 47.2402 5.81006 47.2347 5.87357C46.9171 9.31215 45.795 12.6227 43.9627 15.5272C43.9349 15.5767 43.9219 15.6334 43.9254 15.6904C43.9299 15.748 43.9507 15.8031 43.9852 15.849C44.0198 15.8949 44.0666 15.9295 44.1201 15.9488C44.173 15.9687 44.2304 15.9725 44.2854 15.9597C47.7479 15.1618 50.9784 13.5461 53.717 11.2425C56.4557 8.93886 58.626 6.0117 60.0534 2.6965C60.0897 2.63672 60.1402 2.58716 60.2001 2.55234C60.2599 2.51802 60.3274 2.5 60.3961 2.5C60.4647 2.5 60.5322 2.51802 60.5921 2.55234C60.6511 2.58734 60.7007 2.63691 60.7361 2.6965C63.6755 8.43917 64.6676 15.0159 63.5574 21.3944ZM23.72 30.9882C22.5661 30.9882 21.438 31.3372 20.4785 31.9912C19.519 32.6452 18.7711 33.5747 18.3295 34.6622C17.8879 35.7497 17.7724 36.9463 17.9975 38.1008C18.2226 39.2553 18.7783 40.3158 19.5943 41.1481C20.4103 41.9805 21.4499 42.5473 22.5818 42.7769C23.7136 43.0066 24.8867 42.8887 25.9529 42.4383C27.019 41.9878 27.9303 41.225 28.5714 40.2462C29.2125 39.2675 29.5547 38.1168 29.5547 36.9397V31.3853C29.5496 31.2788 29.5057 31.178 29.4318 31.1026C29.3579 31.0272 29.2591 30.9826 29.1547 30.9773L23.72 30.9882Z" fill="url(#paint0_linear_628_23)"/>
<defs>
<linearGradient id="paint0_linear_628_23" x1="1.3487e-06" y1="61.5" x2="58.8053" y2="-2.28883" gradientUnits="userSpaceOnUse">
<stop stop-color="#52719B"/>
<stop offset="0.5" stop-color="#7252FF"/>
<stop offset="1" stop-color="#DC52FF"/>
</linearGradient>
</defs>
</svg>
