<svg width="64" height="64" viewBox="0 0 64 64" fill="none" xmlns="http://www.w3.org/2000/svg">
<g clip-path="url(#clip0_611_21)">
<path d="M61.7261 6.76706L48.5604 0.400016C47.0285 -0.343845 45.2065 -0.0302168 44.0085 1.17403L18.7912 24.3041L7.80154 15.9266C6.78157 15.1405 5.34361 15.2048 4.39563 16.0733L0.87573 19.2981C-0.290238 20.3556 -0.290238 22.1991 0.86573 23.2566L10.3975 32L0.86573 40.7434C-0.290238 41.8009 -0.290238 43.6444 0.87573 44.7019L4.39563 47.9266C5.35361 48.7952 6.78157 48.8595 7.80154 48.0734L18.7912 39.6859L44.0205 62.826C45.2085 64.0302 47.0305 64.3438 48.5624 63.6L61.7401 57.2229C63.126 56.5534 64 55.1501 64 53.6001V10.3858C64 8.84584 63.114 7.43251 61.7301 6.76304L61.7261 6.76706ZM48.0064 46.6098L28.861 32.002L48.0064 17.3942V46.6098Z" fill="url(#paint0_linear_611_21)"/>
</g>
<defs>
<linearGradient id="paint0_linear_611_21" x1="1.3487e-06" y1="64" x2="64" y2="1.3487e-06" gradientUnits="userSpaceOnUse">
<stop stop-color="#52719B"/>
<stop offset="0.5" stop-color="#7252FF"/>
<stop offset="1" stop-color="#DC52FF"/>
</linearGradient>
<clipPath id="clip0_611_21">
<rect width="64" height="64" fill="white"/>
</clipPath>
</defs>
</svg>
