<svg width="64" height="64" viewBox="0 0 64 64" fill="none" xmlns="http://www.w3.org/2000/svg">
<g clip-path="url(#clip0_625_107)">
<path d="M29.125 0.585976C30.4312 -0.19561 32.5689 -0.195692 33.875 0.585976L56.5537 14.1602C57.2067 14.5512 57.8011 15.227 58.2314 16L58.3848 16.294C58.7244 16.9891 58.9286 17.7416 58.9287 18.4258V45.5743C58.9287 46.3559 58.6614 47.2264 58.2314 47.9991L58.2324 48C57.8021 48.773 57.2078 49.4488 56.5547 49.8399L33.877 63.4141C32.5707 64.1963 30.4323 64.1963 29.126 63.4141L6.44824 49.8399C5.79516 49.449 5.20095 48.7731 4.77051 48L15.8242 41.3829C19.0387 46.7117 24.9019 50.2862 31.5889 50.2862C38.0074 50.286 44.0021 46.9111 47.3193 41.4541L39.4336 36.7627C37.7682 39.4707 34.7833 41.1434 31.5889 41.1436C26.5232 41.1436 22.4017 37.0421 22.4014 32.001C22.4014 26.9596 26.523 22.8575 31.5889 22.8575C34.7918 22.8576 37.7849 24.5399 39.4473 27.2608L47.3154 22.542C43.9975 17.0882 38.0054 13.7151 31.5889 13.7149C21.4576 13.7149 13.2148 21.9182 13.2148 32.001C13.215 35.4286 14.1686 38.6382 15.8242 41.3829L4.76953 48C4.339 47.2271 4.0713 46.3561 4.07129 45.5743V18.4258C4.07145 16.862 5.13988 14.9421 6.44629 14.1602L29.125 0.585976ZM45.2139 25.1436V27.4229H42.9277V29.7149H45.2139V34.2745H42.9277V36.5723H45.2139V38.8575H47.499L47.5 36.5723H52.0713V38.8575H54.3564V36.5723H56.6426V34.2862H54.3564V29.7149H56.6426V27.4229H54.3564V25.1436H52.0713V27.4229H47.499V25.1436H45.2139ZM52.0713 29.7149V34.2862L47.499 34.2745V29.7149H52.0713Z" fill="url(#paint0_linear_625_107)"/>
</g>
<defs>
<linearGradient id="paint0_linear_625_107" x1="4.07129" y1="64.0007" x2="67.3192" y2="9.78877" gradientUnits="userSpaceOnUse">
<stop stop-color="#52719B"/>
<stop offset="0.5" stop-color="#7252FF"/>
<stop offset="1" stop-color="#DC52FF"/>
</linearGradient>
<clipPath id="clip0_625_107">
<rect width="64" height="64" fill="white"/>
</clipPath>
</defs>
</svg>
