<svg width="64" height="64" viewBox="0 0 64 64" fill="none" xmlns="http://www.w3.org/2000/svg">
<path d="M60.8198 0L55.4856 57.7773L32.3748 64L9.26373 57.7773L3.93066 0H60.8198ZM50.0711 11.7481H32.354H14.3231L15.1854 18.7253H32.354H33.3184L32.354 19.1267L15.8129 26.0159L16.3615 32.8359L32.354 32.8877L40.9256 32.9149L40.3769 42.0085L32.3539 44.2673V44.2601L32.2882 44.2784L24.54 42.3224L24.0698 36.6777H24.0442H16.8573H16.832L17.7728 47.5749L32.3542 51.8869V51.8792L32.3805 51.8869L46.8837 47.6534L48.765 26.0159H32.3542H32.3137L32.3542 25.9984L49.3662 18.7253L50.0711 11.7481Z" fill="url(#paint0_linear_625_47)"/>
<defs>
<linearGradient id="paint0_linear_625_47" x1="3.93067" y1="64" x2="67.4893" y2="7.50322" gradientUnits="userSpaceOnUse">
<stop stop-color="#52719B"/>
<stop offset="0.5" stop-color="#7252FF"/>
<stop offset="1" stop-color="#DC52FF"/>
</linearGradient>
</defs>
</svg>
