<svg width="64" height="64" viewBox="0 0 64 64" fill="none" xmlns="http://www.w3.org/2000/svg">
<g clip-path="url(#clip0_631_54)">
<path d="M64 64H0V0H64V64ZM11.6875 37.8984C11.2188 37.8984 10.8203 38.0547 10.4922 38.3672C10.1641 38.6797 10 39.0547 10 39.4922C10 39.9219 10.1641 40.293 10.4922 40.6055C10.8203 40.9102 11.2188 41.0625 11.6875 41.0625C12.1641 41.0625 12.5664 40.9102 12.8945 40.6055C13.2305 40.293 13.3984 39.9219 13.3984 39.4922C13.3984 39.0547 13.2305 38.6797 12.8945 38.3672C12.5664 38.0547 12.1641 37.8984 11.6875 37.8984ZM15.6963 24V40.8047H18.3916V29.7891C18.3916 28.6094 18.3604 27.8398 18.2979 27.4805H18.3682C18.501 27.8164 18.6689 28.1406 18.8721 28.4531L26.8994 40.8047H29.9463V24H27.2627V34.8281C27.2627 35.8906 27.3018 36.6445 27.3799 37.0898H27.333C27.2393 36.9023 27.0283 36.5586 26.7002 36.0586L18.9424 24H15.6963ZM33.1582 24V40.8047H42.5918V38.4492H35.9473V33.4805H41.7246V31.125H35.9473V26.3672H42.2168V24H33.1582ZM43.085 24V26.3672H47.9014V40.8047H50.6904V26.3672H55.5186V24H43.085Z" fill="url(#paint0_linear_631_54)"/>
</g>
<defs>
<linearGradient id="paint0_linear_631_54" x1="1.3487e-06" y1="64" x2="64" y2="1.3487e-06" gradientUnits="userSpaceOnUse">
<stop stop-color="#52719B"/>
<stop offset="0.5" stop-color="#7252FF"/>
<stop offset="1" stop-color="#DC52FF"/>
</linearGradient>
<clipPath id="clip0_631_54">
<rect width="64" height="64" fill="white"/>
</clipPath>
</defs>
</svg>
