<svg width="64" height="64" viewBox="0 0 64 64" fill="none" xmlns="http://www.w3.org/2000/svg">
<path d="M32.5 32C32.5 29.171 33.6326 26.4579 35.6486 24.4575C37.6646 22.4571 40.3989 21.3333 43.25 21.3333C46.1011 21.3333 48.8354 22.4571 50.8514 24.4575C52.8674 26.4579 54 29.171 54 32C54 34.829 52.8674 37.5421 50.8514 39.5425C48.8354 41.5429 46.1011 42.6667 43.25 42.6667C40.3989 42.6667 37.6646 41.5429 35.6486 39.5425C33.6326 37.5421 32.5 34.829 32.5 32ZM11 53.3333C11 50.5044 12.1326 47.7913 14.1486 45.7909C16.1646 43.7905 18.8989 42.6667 21.75 42.6667H32.5V53.3333C32.5 56.1623 31.3674 58.8754 29.3514 60.8758C27.3354 62.8762 24.6011 64 21.75 64C18.8989 64 16.1646 62.8762 14.1486 60.8758C12.1326 58.8754 11 56.1623 11 53.3333ZM32.5 0V21.3333H43.25C46.1011 21.3333 48.8354 20.2095 50.8514 18.2091C52.8674 16.2088 54 13.4956 54 10.6667C54 7.83769 52.8674 5.12458 50.8514 3.12419C48.8354 1.12381 46.1011 0 43.25 0L32.5 0ZM11 10.6667C11 13.4956 12.1326 16.2088 14.1486 18.2091C16.1646 20.2095 18.8989 21.3333 21.75 21.3333H32.5V0H21.75C18.8989 0 16.1646 1.12381 14.1486 3.12419C12.1326 5.12458 11 7.83769 11 10.6667ZM11 32C11 34.829 12.1326 37.5421 14.1486 39.5425C16.1646 41.5429 18.8989 42.6667 21.75 42.6667H32.5V21.3333H21.75C18.8989 21.3333 16.1646 22.4571 14.1486 24.4575C12.1326 26.4579 11 29.171 11 32Z" fill="url(#paint0_linear_611_37)"/>
<defs>
<linearGradient id="paint0_linear_611_37" x1="11" y1="64" x2="70.2525" y2="24.1897" gradientUnits="userSpaceOnUse">
<stop stop-color="#52719B"/>
<stop offset="0.5" stop-color="#7252FF"/>
<stop offset="1" stop-color="#DC52FF"/>
</linearGradient>
</defs>
</svg>
