<svg width="64" height="64" viewBox="0 0 64 64" fill="none" xmlns="http://www.w3.org/2000/svg">
<g clip-path="url(#clip0_611_30)">
<path d="M62.7894 29.1466L34.8454 1.20526C34.0707 0.433392 33.0217 0 31.9281 0C30.8345 0 29.7854 0.433392 29.0107 1.20526L23.2214 7.00526L30.5814 14.3653C31.4497 14.0711 32.3832 14.0263 33.2756 14.2361C34.1681 14.4459 34.9839 14.9018 35.6302 15.5521C36.2766 16.2023 36.7276 17.0208 36.932 17.9145C37.1364 18.8082 37.0861 19.7414 36.7867 20.6079L43.8747 27.7012C44.9237 27.3365 46.0655 27.3388 47.113 27.7079C48.1605 28.0769 49.0516 28.7907 49.6404 29.7324C50.2291 30.6741 50.4806 31.7878 50.3536 32.8911C50.2267 33.9944 49.7287 35.0219 48.9414 35.8052C48.4864 36.261 47.9461 36.6225 47.3512 36.8692C46.7564 37.1158 46.1187 37.2428 45.4747 37.2428C44.8308 37.2428 44.1931 37.1158 43.5983 36.8692C43.0034 36.6225 42.4631 36.261 42.0081 35.8052C41.3263 35.1215 40.8606 34.2523 40.669 33.3059C40.4775 32.3595 40.5685 31.3776 40.9307 30.4826L34.2934 23.8799V41.2799C34.7627 41.5092 35.2054 41.8212 35.5947 42.2079C36.508 43.1306 37.0202 44.3764 37.0202 45.6746C37.0202 46.9728 36.508 48.2186 35.5947 49.1412C35.1381 49.5983 34.5958 49.9609 33.9989 50.2083C33.402 50.4557 32.7622 50.5831 32.1161 50.5831C31.4699 50.5831 30.8301 50.4557 30.2332 50.2083C29.6363 49.9609 29.0941 49.5983 28.6374 49.1412C28.1815 48.6869 27.8198 48.147 27.573 47.5526C27.3262 46.9582 27.1992 46.3209 27.1992 45.6772C27.1992 45.0336 27.3262 44.3963 27.573 43.8019C27.8198 43.2075 28.1815 42.6676 28.6374 42.2132C29.1227 41.7332 29.6694 41.3706 30.2507 41.1306V23.5599C29.6521 23.3152 29.1079 22.9542 28.6498 22.4978C28.1916 22.0413 27.8285 21.4986 27.5815 20.9009C27.3345 20.3032 27.2085 19.6625 27.2107 19.0157C27.213 18.369 27.3435 17.7292 27.5947 17.1333L20.3627 9.86659L1.2 29.0159C-0.400001 30.6292 -0.400001 33.2399 1.2 34.8532L29.1467 62.7919C29.5293 63.1749 29.9837 63.4787 30.4838 63.686C30.9839 63.8933 31.52 64 32.0614 64C32.6028 64 33.1388 63.8933 33.639 63.686C34.1391 63.4787 34.5934 63.1749 34.9761 62.7919L62.7894 34.9786C63.1732 34.5961 63.4776 34.1416 63.6853 33.6412C63.8931 33.1408 64 32.6044 64 32.0626C64 31.5208 63.8931 30.9843 63.6853 30.4839C63.4776 29.9835 63.1732 29.5291 62.7894 29.1466Z" fill="url(#paint0_linear_611_30)"/>
</g>
<defs>
<linearGradient id="paint0_linear_611_30" x1="1.3487e-06" y1="64" x2="64" y2="1.3487e-06" gradientUnits="userSpaceOnUse">
<stop stop-color="#52719B"/>
<stop offset="0.5" stop-color="#7252FF"/>
<stop offset="1" stop-color="#DC52FF"/>
</linearGradient>
<clipPath id="clip0_611_30">
<rect width="64" height="64" fill="white"/>
</clipPath>
</defs>
</svg>
