<svg width="64" height="64" viewBox="0 0 64 64" fill="none" xmlns="http://www.w3.org/2000/svg">
<path fill-rule="evenodd" clip-rule="evenodd" d="M60.9826 33.6235L60.9925 33.98C60.9975 34.2017 61 34.4233 61 34.646C61 50.8579 48.0161 64 32 64C26.4508 64 21.2657 62.4224 16.8587 59.686C16.3225 59.3535 15.7967 59.0039 15.2844 58.6377C7.85182 53.3228 3 44.5581 3 34.646C3 22.2729 10.5628 11.6881 21.2642 7.36871C21.3338 6.85675 21.4138 6.36285 21.507 5.89288C21.7513 4.65777 22.1062 3.47297 22.6668 2.51203C23.2397 1.52815 24.0894 0.684882 25.3146 0.375069C26.7768 0.00519594 28.0261 0.832588 28.8667 1.64924C29.7566 2.51325 30.5815 3.73371 31.3163 5.03522C31.365 5.12164 31.4134 5.2088 31.4617 5.29645C31.6409 5.29327 31.8203 5.29156 32 5.29156C36.5489 5.29156 40.8532 6.35138 44.685 8.24127C45.8445 6.53693 47.0881 4.84503 48.3576 3.46345C49.4391 2.28645 50.6246 1.23835 51.8825 0.613349C53.1754 -0.0292278 54.6518 -0.268486 56.1204 0.396553C57.7596 1.13825 58.5996 2.93342 59.0743 4.70929C59.5735 6.57721 59.7986 8.91852 59.859 11.4356C59.9554 15.4435 59.6363 20.1064 59.2005 24.4434C60.2532 27.3179 60.8738 30.4053 60.9826 33.6235ZM57.685 24.7905C57.5876 25.7354 57.4851 26.6646 57.3801 27.5679C57.0804 30.146 57.2506 32.8345 57.4207 35.5142C57.5613 37.729 57.7017 39.9438 57.5765 42.0781C57.4812 43.6919 57.2345 45.2627 56.7215 46.7627C52.2737 56.0435 42.8754 62.4424 32 62.4424C27.1718 62.4424 22.6348 61.1812 18.6927 58.9663C21.9819 57.5312 24.0339 55.8013 26.0087 54.1367C28.5864 51.9634 31.0318 49.9019 35.9249 48.7544C37.4013 48.4077 38.7946 48.1768 40.1009 48.0371C42.9723 47.73 45.4206 47.8638 47.3919 48.1792C42.4629 45.9023 36.5518 46.4468 31.4462 46.9185C28.3242 47.207 25.5004 47.4678 23.3897 47.0366C16.4029 45.6123 11.2087 40.0732 11.2087 40.0732C11.1091 39.9399 11.2087 39.7007 11.3684 39.772C11.3853 39.7808 11.4396 39.8086 11.4707 39.8237C11.6405 39.9087 12.015 40.0933 12.5404 40.3379C13.1718 40.6318 14.0206 41.0122 14.9933 41.4102C17.5051 42.439 20.8429 43.5859 23.39 43.6631C25.6311 43.731 27.1793 43.5806 28.6137 43.1304C29.993 42.6973 31.2673 41.9878 32.9518 40.9282C33.1268 40.8179 33.3063 40.7046 33.4908 40.5869C33.5378 40.5566 33.5892 40.5239 33.6372 40.4932C33.6372 40.4932 33.5171 40.3496 33.4377 40.3701C33.2776 40.4146 33.0755 40.4951 32.8231 40.5952C31.4708 41.1323 28.6872 42.2373 23.3897 41.3994C18.8237 40.6772 14.5579 38.5684 12.5659 37.4688C11.8988 37.1011 11.4712 36.4312 11.3696 35.6787C11.3578 35.5898 11.3503 35.5005 11.3477 35.4097L11.3146 34.3003L11.3086 34.0947C11.3098 34.0371 11.3298 33.9946 11.3684 33.9551L14.1622 31.6006C14.8987 30.98 15.4195 30.1377 15.6489 29.1963L15.93 28.0425C15.98 27.8369 15.9814 27.6328 15.9424 27.4414C15.8169 26.8198 15.2667 26.332 14.5864 26.3491L14.3708 26.3545C12.4974 26.4014 10.6446 25.9463 9.00038 25.0356L23.0302 24.8423C23.5742 24.835 24.0983 24.6357 24.5131 24.2803L32 17.8535C33.6104 16.4713 35.653 15.7125 37.7642 15.7125H41.5461C42.1727 14.8116 42.8678 13.7315 43.612 12.5738C44.0994 11.8155 44.6081 11.024 45.1332 10.2281C45.3092 9.96295 45.5227 9.64166 45.7289 9.33502C48.8328 4.73639 52.4186 0.35334 55.5196 1.75642C58.7557 3.22126 58.7477 12.6012 57.9858 21.6001L57.685 24.7905ZM58.7871 28.4971C58.7962 28.5386 58.8053 28.5801 58.8145 28.6221C58.8041 28.6689 58.7936 28.7158 58.7827 28.7637C58.7827 28.6753 58.7842 28.5864 58.7871 28.4971ZM29.8073 5.37384C28.4547 3.07722 26.9916 1.48664 25.6716 1.82087C24.0831 2.22248 23.2821 4.14703 22.841 6.7857C22.7568 7.39068 22.6206 8.42633 22.6092 8.51715C22.4116 10.3653 22.3236 12.4347 22.2354 14.5167C22.2016 15.3106 22.168 16.1065 22.128 16.8926C22.1231 16.9893 22.1181 17.0855 22.1131 17.1822C22.0933 17.5611 22.0701 17.9521 22.046 18.3247C22.0423 18.3882 22.0381 18.4521 22.0339 18.5156C22.0575 18.6191 22.2016 18.7085 22.2923 18.6348L25.6399 16.0626C27.3874 14.7198 29.5208 13.9938 31.7142 13.9938H32.3005L33.567 13.9947C33.4078 13.5216 33.2329 13.0216 33.0443 12.506C32.381 10.6915 31.5472 8.67438 30.6324 6.88312L29.8073 5.37384ZM52.6786 20.7964C52.4141 21.896 52.218 22.6123 52.218 22.6123L51.4454 21.6196C51.3229 21.4629 51.1994 21.3081 51.0742 21.1538C49.7539 19.5371 48.2435 18.0884 46.5757 16.8419C46.5757 16.8419 47.2248 15.6134 48.1575 14.1515C49.6382 11.8307 51.8328 8.91901 53.2758 9.37652C55.0643 9.9444 53.5206 17.3043 52.6786 20.7964ZM23.1659 22.9854L31.4112 16.3043C31.5089 16.2267 31.5808 16.1534 31.6319 16.086C31.8823 15.7501 31.625 15.548 31.4928 15.548C31.2743 15.546 31.0562 15.5548 30.8401 15.5729C30.6537 15.589 30.4604 15.6124 30.277 15.6427C30.096 15.673 29.9168 15.7096 29.7385 15.7535C28.7605 15.9938 27.8368 16.441 27.0304 17.0729L19.1121 23.2827H22.3296C22.6333 23.2827 22.9285 23.1777 23.1659 22.9854ZM32.7995 22.8311C31.9223 23.376 31.3242 24.3247 31.2842 25.4341C31.2709 25.7363 31.2986 26.0303 31.3625 26.311C31.678 27.6997 32.8782 28.7593 34.355 28.8262H34.4944C36.189 28.8262 37.6046 27.4746 37.6842 25.7388C37.704 25.416 37.6639 25.1133 37.6046 24.8311C36.1895 23.6201 34.574 23.0933 32.7995 22.8311ZM8.05683 33.1782C8.05635 33.1445 8.05611 33.1108 8.05611 33.0771V31.4722L9.47119 33.3477V37.3418C8.6656 36.2651 8.18419 34.98 8.0783 33.6411C8.07107 33.5493 8.06552 33.4575 8.0619 33.3652C8.05973 33.3086 8.05756 33.2349 8.05683 33.1782Z" fill="url(#paint0_linear_611_44)"/>
<defs>
<linearGradient id="paint0_linear_611_44" x1="3" y1="64" x2="66.6912" y2="6.27989" gradientUnits="userSpaceOnUse">
<stop stop-color="#52719B"/>
<stop offset="0.5" stop-color="#7252FF"/>
<stop offset="1" stop-color="#DC52FF"/>
</linearGradient>
</defs>
</svg>
