<svg width="64" height="64" viewBox="0 0 64 64" fill="none" xmlns="http://www.w3.org/2000/svg">
<g clip-path="url(#clip0_615_68)">
<path d="M28.2959 0.884786C30.3393 -0.294908 32.857 -0.294949 34.9004 0.884786L56.8936 13.583C58.9367 14.7627 60.1952 16.9425 60.1953 19.3018V44.6983C60.1952 47.0575 58.9367 49.2373 56.8936 50.417L34.9004 63.1153C32.857 64.295 30.3393 64.295 28.2959 63.1153L6.30273 50.417C4.25944 49.2373 3.00012 47.0576 3 44.6983V19.3018C3.00014 16.9424 4.25945 14.7627 6.30273 13.583L28.2959 0.884786ZM40.1982 22.0938C39.3043 22.0938 38.4281 22.2023 37.5703 22.419C36.7128 22.6266 35.9456 22.9513 35.2686 23.3936C34.6004 23.827 34.0579 24.3824 33.6426 25.0596C33.2363 25.7277 33.0332 26.5178 33.0332 27.4297C33.0332 28.17 33.1511 28.8155 33.3857 29.3662C33.6295 29.917 33.9587 30.4141 34.374 30.8565C34.7984 31.2899 35.2954 31.6867 35.8643 32.0479C36.4331 32.409 37.0469 32.7661 37.7061 33.1182C38.3199 33.398 38.8932 33.6689 39.4258 33.9307C39.9675 34.1835 40.4377 34.4506 40.835 34.7305C41.2321 35.0103 41.5392 35.322 41.7559 35.6651C41.9814 35.9991 42.0947 36.3961 42.0947 36.8565C42.0947 37.7143 41.76 38.3689 41.0918 38.8203C40.4327 39.2717 39.4263 39.498 38.0723 39.4981C37.6841 39.4981 37.2592 39.4572 36.7988 39.376C36.3383 39.2947 35.8775 39.1816 35.417 39.0371C34.9565 38.8836 34.5188 38.6982 34.1035 38.4815C33.6972 38.2648 33.3448 38.0209 33.0469 37.75V41.0684C33.3178 41.2399 33.6747 41.3939 34.1172 41.5293C34.5595 41.6647 35.0289 41.7779 35.5254 41.8682C36.022 41.9675 36.5051 42.0398 36.9746 42.085C37.4529 42.1391 37.8547 42.166 38.1797 42.166C39.1549 42.166 40.0812 42.0715 40.957 41.8819C41.8328 41.6922 42.6043 41.3843 43.2725 40.96C43.9497 40.5356 44.4875 39.9848 44.8848 39.3076C45.2819 38.6305 45.4805 37.7995 45.4805 36.8155C45.4804 36.0842 45.345 35.434 45.0742 34.8653C44.8124 34.2874 44.4507 33.7634 43.9902 33.294C43.5389 32.8247 43.0109 32.3959 42.4062 32.0078C41.8103 31.6196 41.1733 31.2496 40.4961 30.8975C39.8369 30.6085 39.2547 30.3415 38.749 30.0977C38.2525 29.8449 37.8277 29.588 37.4756 29.3262C37.1325 29.0644 36.871 28.775 36.6904 28.459C36.5099 28.143 36.4189 27.7684 36.4189 27.335C36.419 26.8745 36.5367 26.4813 36.7715 26.1563C37.0062 25.8314 37.3087 25.5651 37.6787 25.3574C38.0579 25.1498 38.4826 25.0005 38.9521 24.9102C39.4306 24.8199 39.9092 24.7754 40.3877 24.7754C42.1213 24.7754 43.5391 25.1723 44.6406 25.9668V22.7842C43.7106 22.3237 42.2298 22.0938 40.1982 22.0938ZM17.7285 22.419V41.8408H21.0469V22.419H17.7285ZM25.8281 22.419V41.8408H29.1465V22.419H25.8281Z" fill="url(#paint0_linear_615_68)"/>
</g>
<defs>
<linearGradient id="paint0_linear_615_68" x1="3" y1="64" x2="66.5978" y2="7.16421" gradientUnits="userSpaceOnUse">
<stop stop-color="#52719B"/>
<stop offset="0.5" stop-color="#7252FF"/>
<stop offset="1" stop-color="#DC52FF"/>
</linearGradient>
<clipPath id="clip0_615_68">
<rect width="64" height="64" fill="white"/>
</clipPath>
</defs>
</svg>
