<svg width="64" height="64" viewBox="0 0 64 64" fill="none" xmlns="http://www.w3.org/2000/svg">
<path d="M31.6161 47.3331C31.6161 47.3331 31.6161 25.2223 32.3319 25.2244C32.8853 25.2244 33.6053 53.7459 33.6053 53.7459C32.6148 53.6264 31.6161 49.0532 31.6161 47.3331ZM45.4902 25.4805C43.5781 16.9102 39.3896 9.54131 33.6136 3.85408L33.599 3.84128C32.8957 2.74011 32.2528 1.47676 31.7368 0.145115L31.6869 0C31.6889 0.0426809 31.6889 0.0938979 31.6889 0.145115C31.6889 1.35085 31.1625 2.42854 30.3323 3.15198L30.3261 3.15625C22.8896 9.63094 18.1581 19.1723 18.0021 29.8489V29.8766C18 30.0089 18 30.1647 18 30.3205C18 40.899 22.9625 50.2888 30.6299 56.1745L30.711 56.2342L30.892 56.3687C31.2263 58.9067 31.5121 61.4505 31.7493 64H32.9998C33.3452 60.8181 33.8113 58.0332 34.4209 55.3016L34.3252 55.8117C35.1491 55.2248 35.8691 54.6166 36.5411 53.9572L36.5349 53.9636C42.3629 48.4215 46 40.5255 46 31.761C46 31.6308 46 31.5028 45.9979 31.3726V31.3918C45.9917 29.2983 45.8065 27.2517 45.4549 25.265L45.4861 25.4762L45.4902 25.4805Z" fill="url(#paint0_linear_628_37)"/>
<defs>
<linearGradient id="paint0_linear_628_37" x1="18" y1="64" x2="65.0033" y2="43.4361" gradientUnits="userSpaceOnUse">
<stop stop-color="#52719B"/>
<stop offset="0.5" stop-color="#7252FF"/>
<stop offset="1" stop-color="#DC52FF"/>
</linearGradient>
</defs>
</svg>
