<svg width="64" height="64" viewBox="0 0 64 64" fill="none" xmlns="http://www.w3.org/2000/svg">
<path d="M24.3799 0C37.2161 0.000355047 47.6352 3.85308 47.7549 8.62207H47.7568V8.67285C47.7569 8.68359 47.7578 8.69433 47.7578 8.70508C47.7578 8.7155 47.7569 8.72592 47.7568 8.73633V39.3496C46.0189 39.9731 44.4488 40.9491 43.1328 42.1914V40.4297H37.3076V27.5117H34.8135V42.5352H42.7832C40.4269 44.9293 38.9717 48.2133 38.9717 51.8379C38.9717 55.2965 40.2964 58.4454 42.4648 60.8066C38.1779 62.7538 31.669 63.9998 24.3799 64C11.4691 63.9999 1.00173 60.1031 1.00098 55.2959C1.00098 55.2684 1.0032 55.2404 1.00391 55.2129H1V8.62207H1.00391C1.12367 3.85291 11.5431 7.41605e-05 24.3799 0ZM53.1826 40.1338C53.3911 40.1403 53.5913 40.2173 53.751 40.3516C53.9106 40.486 54.0205 40.6706 54.0625 40.875L54.3857 42.7471C54.3961 42.8066 54.3986 42.8675 54.3936 42.9277C55.2431 43.1473 56.0581 43.4852 56.8135 43.9316C56.8527 43.8849 56.8983 43.8437 56.9482 43.8086L58.5 42.7139C58.6741 42.599 58.882 42.5467 59.0898 42.5645C59.2979 42.5823 59.4943 42.6695 59.6465 42.8125L61.2617 44.4277C61.4047 44.5799 61.4919 44.7763 61.5098 44.9844C61.5275 45.1922 61.4752 45.4001 61.3604 45.5742L60.2656 47.127C60.2303 47.1765 60.1889 47.2213 60.1426 47.2607C60.5891 48.0162 60.9271 48.831 61.1465 49.6807C61.2065 49.6754 61.2669 49.679 61.3262 49.6895L63.1982 50.0117C63.4027 50.0539 63.5872 50.1645 63.7217 50.3242C63.856 50.4839 63.9327 50.684 63.9395 50.8926V53.1729C63.9327 53.3815 63.8561 53.5824 63.7217 53.7422C63.5872 53.9019 63.4027 54.0115 63.1982 54.0537L61.3262 54.377C61.2669 54.3875 61.2065 54.391 61.1465 54.3867C60.9271 55.2365 60.5891 56.0512 60.1426 56.8066C60.189 56.8455 60.2303 56.8902 60.2656 56.9395L61.3604 58.4912C61.4758 58.6657 61.5286 58.8746 61.5107 59.083C61.4929 59.2913 61.405 59.4874 61.2617 59.6396L59.6465 61.2549C59.4941 61.3976 59.2979 61.4854 59.0898 61.5029C58.8819 61.5204 58.674 61.4668 58.5 61.3516L56.9482 60.2588C56.8983 60.2237 56.8527 60.1825 56.8135 60.1357C56.0504 60.5861 55.2268 60.9258 54.3682 61.1445C54.3844 61.2362 54.3844 61.3302 54.3682 61.4219L54.0801 63.0889C54.0321 63.3215 53.9074 63.5317 53.7256 63.6846C53.5438 63.8374 53.3155 63.9244 53.0781 63.9316H51.0039C50.7665 63.9244 50.5383 63.8373 50.3564 63.6846C50.1746 63.5317 50.049 63.3216 50.001 63.0889L49.7129 61.4219C49.6964 61.3303 49.6965 61.2361 49.7129 61.1445C48.8542 60.9257 48.0307 60.5861 47.2676 60.1357C47.2282 60.1819 47.1827 60.2232 47.1328 60.2578L45.5811 61.3516C45.4066 61.467 45.1986 61.5207 44.9902 61.5029C44.782 61.4851 44.5859 61.3971 44.4336 61.2539L42.8184 59.6387C42.676 59.4864 42.5888 59.2898 42.5713 59.082C42.5539 58.8744 42.6069 58.667 42.7217 58.4932L43.8154 56.9414C43.8502 56.8916 43.8914 56.8461 43.9375 56.8066C43.4915 56.0511 43.1544 55.2363 42.9355 54.3867C42.8753 54.391 42.8144 54.3875 42.7549 54.377L40.8828 54.0537C40.6783 54.0117 40.4938 53.9019 40.3594 53.7422C40.225 53.5824 40.148 53.3816 40.1416 53.1729V50.8926C40.1481 50.6838 40.2249 50.483 40.3594 50.3232C40.4938 50.1636 40.6783 50.0537 40.8828 50.0117L42.7549 49.6895C42.8144 49.6789 42.8753 49.6754 42.9355 49.6807C43.1547 48.8312 43.4917 48.0163 43.9375 47.2607C43.8916 47.2212 43.8503 47.1765 43.8154 47.127L42.7217 45.5742C42.6068 45.4 42.5538 45.1924 42.5713 44.9844C42.5888 44.7764 42.6759 44.5803 42.8184 44.4277L44.4336 42.8125C44.586 42.6694 44.782 42.5813 44.9902 42.5635C45.1984 42.5457 45.4066 42.5989 45.5811 42.7139L47.1328 43.8086C47.1827 43.8436 47.2283 43.8849 47.2676 43.9316C48.023 43.485 48.8378 43.1472 49.6875 42.9277C49.6822 42.8675 49.6847 42.8066 49.6953 42.7471L50.0186 40.875C50.0606 40.6705 50.1704 40.486 50.3301 40.3516C50.4898 40.2172 50.6907 40.1402 50.8994 40.1338H53.1826ZM53.5908 48.29C52.8505 47.9835 52.0358 47.9032 51.25 48.0596C50.4641 48.216 49.7414 48.6022 49.1748 49.1689C48.6084 49.7355 48.2228 50.4574 48.0664 51.2432C47.91 52.0292 47.9904 52.8445 48.2969 53.585C48.6033 54.3252 49.1222 54.9579 49.7881 55.4033C50.4542 55.8488 51.2377 56.0876 52.0391 56.0879C52.5715 56.0881 53.0989 55.983 53.5908 55.7793C54.0827 55.5756 54.5298 55.2769 54.9062 54.9004C55.2827 54.5239 55.5815 54.0769 55.7852 53.585C55.9888 53.093 56.093 52.5656 56.0928 52.0332C56.0925 51.2318 55.8545 50.4485 55.4092 49.7822C54.9638 49.116 54.3312 48.5966 53.5908 48.29ZM25.0283 27.2598C23.8971 27.2598 22.8728 27.4492 21.958 27.8262C21.0434 28.2033 20.2645 28.7376 19.6221 29.4287C18.9865 30.1201 18.4938 30.9549 18.1445 31.9326C17.8023 32.9104 17.6319 34 17.6318 35.2012C17.6318 36.3257 17.8023 37.3533 18.1445 38.2822C18.4867 39.2109 18.9694 40.0103 19.5908 40.6807C20.2123 41.3439 20.9631 41.8613 21.8428 42.2314C22.7226 42.6014 23.7048 42.7871 24.7871 42.7871C25.2059 42.7871 25.6083 42.759 25.9922 42.7031C26.376 42.6473 26.7466 42.5704 27.1025 42.4727L29.7852 44.5576H33.5771L29.2188 41.4141C30.1195 40.7366 30.8186 39.8427 31.3145 38.7324C31.8103 37.615 32.0586 36.3155 32.0586 34.835C32.0586 33.7175 31.8871 32.6935 31.5449 31.7646C31.2097 30.836 30.7345 30.0393 30.1201 29.376C29.5058 28.7058 28.765 28.1856 27.8994 27.8154C27.0335 27.4453 26.0757 27.2599 25.0283 27.2598ZM11.7432 27.2598C11.052 27.2598 10.3742 27.3442 9.71094 27.5117C9.04762 27.6723 8.45341 27.9236 7.92969 28.2656C7.41293 28.6008 6.99412 29.031 6.67285 29.5547C6.35859 30.0715 6.20121 30.6824 6.20117 31.3877C6.20117 31.9603 6.29211 32.4597 6.47363 32.8857C6.66221 33.3117 6.91706 33.6969 7.23828 34.0391C7.56643 34.3741 7.95085 34.6817 8.39062 34.9609C8.83042 35.2402 9.30587 35.5158 9.81543 35.7881C10.2902 36.0045 10.7346 36.2145 11.1465 36.417C11.5651 36.6124 11.9283 36.8189 12.2354 37.0352C12.5424 37.2516 12.7807 37.4926 12.9482 37.7578C13.1227 38.0161 13.2099 38.3237 13.21 38.6797C13.21 39.343 12.9511 39.85 12.4346 40.1992C11.9248 40.5482 11.1457 40.7226 10.0986 40.7227C9.7985 40.7227 9.46922 40.6917 9.11328 40.6289C8.75742 40.5661 8.40078 40.4788 8.04492 40.3672C7.68892 40.2485 7.34944 40.105 7.02832 39.9375C6.7143 39.77 6.44226 39.5804 6.21191 39.3711V41.9385C6.42134 42.071 6.69732 42.1903 7.03906 42.2949C7.38111 42.3996 7.74501 42.4868 8.12891 42.5566C8.51277 42.6334 8.88706 42.6887 9.25 42.7236C9.61983 42.7655 9.93135 42.7871 10.1826 42.7871C10.9365 42.787 11.6529 42.714 12.3301 42.5674C13.0073 42.4207 13.6054 42.1827 14.1221 41.8545C14.6455 41.5263 15.061 41.0997 15.3682 40.5762C15.6754 40.0524 15.8291 39.4096 15.8291 38.6484C15.8291 38.0829 15.725 37.5796 15.5156 37.1396C15.3132 36.6928 15.0328 36.2879 14.6768 35.9248C14.3277 35.5617 13.9189 35.229 13.4512 34.9287C12.9904 34.6285 12.4972 34.3426 11.9736 34.0703C11.4641 33.8469 11.013 33.6406 10.6221 33.4521C10.2382 33.2567 9.90997 33.0569 9.6377 32.8545C9.37257 32.6522 9.16995 32.4287 9.03027 32.1846C8.89058 31.9401 8.82031 31.6497 8.82031 31.3145C8.82034 30.9584 8.91126 30.6547 9.09277 30.4033C9.27434 30.152 9.50869 29.9457 9.79492 29.7852C10.088 29.6247 10.4165 29.5093 10.7793 29.4395C11.1491 29.3697 11.5199 29.334 11.8896 29.334C13.2304 29.3341 14.3277 29.6423 15.1797 30.2568V27.7939C14.4604 27.4379 13.3141 27.2598 11.7432 27.2598ZM24.9023 29.4492C25.6075 29.4493 26.2403 29.5758 26.7988 29.8271C27.3643 30.0786 27.8434 30.445 28.2344 30.9268C28.6254 31.4017 28.9253 31.9892 29.1348 32.6875C29.3442 33.3859 29.4492 34.1823 29.4492 35.0762C29.4492 35.949 29.3414 36.7278 29.125 37.4121C28.9085 38.0964 28.5973 38.6765 28.1924 39.1514C27.7945 39.6191 27.3087 39.979 26.7363 40.2305C26.1638 40.4818 25.5169 40.6073 24.7979 40.6074C24.1207 40.6074 23.5019 40.4751 22.9434 40.21C22.3847 39.9376 21.9059 39.5599 21.5078 39.0781C21.1098 38.5893 20.7987 38.0026 20.5752 37.3184C20.3587 36.6339 20.251 35.8751 20.251 35.0439C20.251 34.2061 20.3625 33.445 20.5859 32.7607C20.8164 32.0763 21.1378 31.4889 21.5498 31C21.9618 30.5044 22.4511 30.1237 23.0166 29.8584C23.5891 29.5862 24.2182 29.4492 24.9023 29.4492ZM24.3799 3.64746C14.3073 3.64752 6.1416 5.87498 6.1416 8.62207C6.14208 11.369 14.3076 13.5956 24.3799 13.5957C25.0023 13.5957 25.6192 13.5869 26.2256 13.5703C26.2414 13.5698 26.2586 13.5688 26.2744 13.5684C26.8624 13.5518 27.4436 13.5285 28.0137 13.4971C29.5534 13.4121 31.024 13.2734 32.3965 13.0898C32.9342 13.018 33.4585 12.939 33.9648 12.8535C35.2336 12.6392 36.3999 12.3827 37.4365 12.0928C37.7901 11.9939 38.1305 11.8927 38.4531 11.7861C41.0537 10.9264 42.6168 9.82352 42.6172 8.62207H42.6182C42.6182 5.8751 34.4519 3.64771 24.3799 3.64746Z" fill="url(#paint0_linear_622_255)"/>
<defs>
<linearGradient id="paint0_linear_622_255" x1="1" y1="64" x2="64.9911" y2="1.06933" gradientUnits="userSpaceOnUse">
<stop stop-color="#52719B"/>
<stop offset="0.5" stop-color="#7252FF"/>
<stop offset="1" stop-color="#DC52FF"/>
</linearGradient>
</defs>
</svg>
