<svg width="64" height="64" viewBox="0 0 64 64" fill="none" xmlns="http://www.w3.org/2000/svg">
<path fill-rule="evenodd" clip-rule="evenodd" d="M25.7604 0.239133C15.9676 1.09667 8.08967 4.23793 6.40839 7.95551C6.02681 8.79918 6.00003 9.43396 6.00003 17.6067C6.00003 27.428 5.97239 27.2328 7.59585 28.8924C8.52885 29.8464 10.5994 31.2397 11.6506 31.6212C12.0451 31.7646 12.368 31.9391 12.368 32.0093C12.368 32.0795 12.0451 32.2541 11.6506 32.3974C10.5994 32.779 8.52885 34.1723 7.59585 35.1263C5.97239 36.7859 6.00003 36.5906 6.00003 46.4119C6.00003 54.5847 6.02681 55.2195 6.40839 56.0631C9.17892 62.189 26.8575 65.7197 41.9163 63.1543C49.6701 61.8336 55.1877 59.1673 56.5916 56.0631C56.9732 55.2195 57 54.5847 57 46.4119C57 38.4075 56.967 37.5911 56.6131 36.8102C56.0655 35.6016 53.8893 33.6647 52.1368 32.8253C51.3224 32.4352 50.656 32.068 50.656 32.0093C50.656 31.9506 51.3224 31.5834 52.1368 31.1934C53.8893 30.354 56.0655 28.417 56.6131 27.2085C56.967 26.4275 57 25.6112 57 17.6067C57 7.67535 57.0306 7.87571 55.2458 6.14185C50.7192 1.7449 37.8914 -0.823245 25.7604 0.239133ZM36.9207 16.2307C39.6917 16.4697 43.8146 17.1205 45.2808 17.5504L46.2006 17.8201L38.9302 20.8786C34.3938 22.787 31.4983 23.8948 31.2304 23.8244C30.9943 23.7625 27.6574 22.386 23.8153 20.7659L16.8298 17.8201L17.7343 17.5504C21.8998 16.3086 30.7568 15.6994 36.9207 16.2307ZM38.9749 43.158L46.1925 46.1985L45.2767 46.4682C42.4424 47.303 36.0028 48.0139 31.3097 48.0101C26.8318 48.0062 20.4734 47.2842 17.7335 46.4682L16.8277 46.1985L24.0045 43.1652C27.9517 41.4969 31.3108 40.1288 31.4692 40.1247C31.6275 40.1206 35.0052 41.4856 38.9749 43.158Z" fill="url(#paint0_linear_815_28)"/>
<defs>
<linearGradient id="paint0_linear_815_28" x1="6" y1="64" x2="68.385" y2="14.287" gradientUnits="userSpaceOnUse">
<stop stop-color="#52719B"/>
<stop offset="0.5" stop-color="#7252FF"/>
<stop offset="1" stop-color="#DC52FF"/>
</linearGradient>
</defs>
</svg>
