<svg width="64" height="64" viewBox="0 0 64 64" fill="none" xmlns="http://www.w3.org/2000/svg">
<g clip-path="url(#clip0_643_38)">
<path d="M47.1207 58.4443C44.2954 58.4443 41.5858 57.289 39.588 55.2325C37.5902 53.176 36.4678 50.3868 36.4678 47.4785C36.4678 44.5701 37.5902 41.7809 39.588 39.7244C41.5858 37.6679 44.2954 36.5126 47.1207 36.5126C49.946 36.5126 52.6556 37.6679 54.6534 39.7244C56.6512 41.7809 57.7736 44.5701 57.7736 47.4785C57.7736 50.3868 56.6512 53.176 54.6534 55.2325C52.6556 57.289 49.946 58.4443 47.1207 58.4443ZM25.8709 33.3093C24.9965 33.3093 24.1307 33.132 23.3229 32.7876C22.515 32.4431 21.781 31.9383 21.1627 31.3018C20.5444 30.6654 20.054 29.9098 19.7194 29.0782C19.3848 28.2467 19.2125 27.3554 19.2125 26.4553C19.2125 25.5552 19.3848 24.664 19.7194 23.8324C20.054 23.0008 20.5444 22.2453 21.1627 21.6088C21.781 20.9723 22.515 20.4675 23.3229 20.123C24.1307 19.7786 24.9965 19.6013 25.8709 19.6013C27.6368 19.6013 29.3304 20.3234 30.5791 21.6088C31.8278 22.8942 32.5293 24.6375 32.5293 26.4553C32.5293 28.2731 31.8278 30.0165 30.5791 31.3018C29.3304 32.5872 27.6368 33.3093 25.8709 33.3093ZM47.59 11.9129H29.8121C25.4599 11.9143 21.2863 13.6948 18.2091 16.863C15.1319 20.0312 13.4028 24.3276 13.4021 28.8077V47.1079C13.4021 51.588 15.131 55.8845 18.2085 59.0524C21.286 62.2203 25.4599 64 29.8121 64H47.59C51.9422 64 56.1162 62.2203 59.1936 59.0524C62.2711 55.8845 64 51.588 64 47.1079V28.8077C64 24.3274 62.2712 20.0305 59.1938 16.8622C56.1164 13.6939 51.9425 11.9136 47.59 11.9129ZM10.6556 5.4843C10.6556 6.93883 10.0942 8.33378 9.09509 9.36229C8.09593 10.3908 6.74079 10.9686 5.32778 10.9686C3.91476 10.9686 2.55962 10.3908 1.56047 9.36229C0.561318 8.33378 0 6.93883 0 5.4843C0 4.02978 0.561318 2.63482 1.56047 1.60632C2.55962 0.577809 3.91476 0 5.32778 0C6.74079 0 8.09593 0.577809 9.09509 1.60632C10.0942 2.63482 10.6556 4.02978 10.6556 5.4843Z" fill="url(#paint0_linear_643_38)"/>
</g>
<defs>
<linearGradient id="paint0_linear_643_38" x1="1.3487e-06" y1="64" x2="64" y2="1.3487e-06" gradientUnits="userSpaceOnUse">
<stop stop-color="#52719B"/>
<stop offset="0.5" stop-color="#7252FF"/>
<stop offset="1" stop-color="#DC52FF"/>
</linearGradient>
<clipPath id="clip0_643_38">
<rect width="64" height="64" fill="white"/>
</clipPath>
</defs>
</svg>
