<svg width="64" height="64" viewBox="0 0 64 64" fill="none" xmlns="http://www.w3.org/2000/svg">
<path d="M46.2621 0C43.7358 0.0220014 41.2318 0.376023 38.8009 1.07207L38.6325 1.12607C37.1086 0.864054 35.5563 0.720045 34.0141 0.688043C30.8222 0.634039 28.0829 1.39409 25.8752 2.66617C23.6979 1.92812 19.185 0.634039 14.4287 0.896056C11.1232 1.07207 7.50725 2.06213 4.82064 4.8543C2.15839 7.63647 0.744073 11.9487 1.0383 17.8251C1.1215 19.4392 1.5882 22.0734 2.36943 25.4996C3.14051 28.9178 4.23016 32.918 5.59375 36.5743C6.95735 40.2205 8.44472 43.5007 10.7722 45.7288C11.9328 46.8429 13.5399 47.793 15.4311 47.711C16.7541 47.657 17.9472 47.0849 18.9841 46.2409C19.4894 46.8969 20.0312 47.1769 20.5162 47.4389C21.1411 47.773 21.7316 48.001 22.3566 48.149C23.4767 48.429 25.3902 48.795 27.6304 48.419C28.3913 48.293 29.1949 48.045 29.9984 47.701C30.0309 48.575 30.0633 49.4391 30.0938 50.3151C30.2094 53.0753 30.2865 55.6274 31.1185 57.8676C31.2565 58.2336 31.6278 60.1077 33.0847 61.7738C34.5538 63.4399 37.4048 64.472 40.6718 63.784C42.9667 63.3039 45.8928 62.4299 47.8387 59.7017C49.7624 57.0135 50.6288 53.1493 50.7993 46.8769C50.8398 46.5329 50.8946 46.2529 50.9454 45.9809L51.3999 46.0229H51.4547C53.9059 46.1269 56.5702 45.7828 58.8002 44.7608C60.7644 43.8647 62.2559 42.9587 63.3435 41.3446C63.6093 40.9465 63.9137 40.4585 63.9908 39.6245C64.074 38.8024 63.587 37.4983 62.7835 36.8963C61.1784 35.6882 60.1638 36.1462 59.0742 36.3763C58.0088 36.6063 56.9172 36.7283 55.8295 36.7603C58.9565 31.574 61.1967 26.0536 62.477 21.1753C63.238 18.2891 63.6621 15.633 63.6925 13.3108C63.7351 10.9887 63.5363 8.93655 62.128 7.15644C57.7106 1.6041 51.5054 0.0600037 46.7085 0.0100006C46.5604 0.0100006 46.4143 0.0100006 46.2641 0.0100006L46.2621 0ZM46.1342 1.71011C50.6694 1.6681 56.4687 2.91818 60.6325 8.16651C61.5741 9.34458 61.85 11.0627 61.8176 13.1888C61.7851 15.3149 61.3854 17.8451 60.6549 20.6273C59.2507 26.0256 56.5742 32.294 52.8244 37.9324C52.9522 38.0264 53.0983 38.1084 53.2464 38.1624C54.0276 38.4844 55.8133 38.7544 59.3846 38.0364C60.2835 37.8463 60.941 37.7243 61.6268 38.2344C61.9657 38.5144 62.1443 38.9324 62.1219 39.3704C62.0814 39.6925 61.9657 40.0045 61.7628 40.2665C61.0749 41.2846 59.7154 42.2566 57.9703 43.0587C56.4281 43.7647 54.2062 44.1307 52.2542 44.1527C51.2619 44.1627 50.3528 44.0887 49.5777 43.8487L49.5371 43.8407C49.2388 46.6629 48.555 52.2472 48.1086 54.7874C47.7515 56.8375 47.1265 58.4756 45.9333 59.6937C44.7382 60.9238 43.058 61.6518 40.7854 62.1318C37.975 62.7259 35.9337 62.0898 34.6147 60.9958C33.2958 59.9017 32.6911 58.4436 32.3319 57.5576C32.0803 56.9435 31.9525 56.1515 31.8267 55.0874C31.6988 54.0253 31.6156 52.7333 31.5507 51.2652C31.4675 49.025 31.435 46.7849 31.4675 44.5348C30.2967 45.5988 28.8377 46.2949 27.2712 46.5669C25.4024 46.8789 23.7425 46.5669 22.7503 46.3269C22.2633 46.2009 21.7864 46.0249 21.3441 45.7848C20.8794 45.5448 20.4451 45.2748 20.1509 44.7308C19.9805 44.4188 19.9297 44.0567 20.0028 43.7127C20.086 43.3587 20.297 43.0567 20.5851 42.8267C21.1229 42.3966 21.8331 42.1606 22.8984 41.9406C24.8443 41.5426 25.5302 41.2746 25.9421 40.9485C26.2911 40.6785 26.6949 40.1165 27.3889 39.2924C27.3889 39.2624 27.3889 39.2204 27.3788 39.1884C26.1227 39.1484 24.8951 38.8264 23.7851 38.2304C23.3854 38.6464 21.3014 40.8145 18.7772 43.8147C17.72 45.0628 16.5471 45.7828 15.3012 45.8368C14.0655 45.8868 12.9413 45.2748 11.9917 44.3667C10.0904 42.5426 8.56647 39.4064 7.24549 35.8642C5.92451 32.322 4.85717 28.3758 4.08609 25.0216C3.32516 21.6553 2.87063 18.9472 2.80569 17.6451C2.52161 12.0927 3.84259 8.35452 6.10307 5.98837C8.36355 3.62222 11.4621 2.73817 14.4855 2.56216C19.9074 2.26014 25.0635 4.12426 26.1004 4.52028C28.1072 3.1762 30.6964 2.34415 33.9309 2.39415C35.4649 2.41615 36.9848 2.61216 38.4762 2.97818L38.531 2.94618C39.1864 2.72817 39.852 2.53016 40.5277 2.38615C42.3681 1.95612 44.2471 1.73811 46.1282 1.70811L46.1342 1.71011ZM46.5462 3.49022H46.1464C44.6043 3.50822 43.0479 3.68823 41.5382 4.01025C44.9086 5.48034 47.4552 7.73848 49.251 10.0106C50.4989 11.5727 51.5237 13.2908 52.3049 15.1249C52.6133 15.835 52.8142 16.427 52.9197 16.885C52.9826 17.1151 53.0151 17.3111 53.0354 17.5091C53.0354 17.6131 53.0455 17.7191 52.9928 17.8951C52.9928 17.9051 52.9826 17.9271 52.9826 17.9371C53.0699 20.2713 52.4774 21.8514 52.4003 24.0815C52.3495 25.6976 52.7716 27.5937 52.8771 29.6658C52.9725 31.612 52.731 33.7481 51.4506 35.8522C51.5561 35.9782 51.6515 36.1022 51.757 36.2382C55.1498 30.9659 57.601 25.1436 58.9017 20.1733C59.5997 17.4951 59.967 15.0689 59.9994 13.1548C60.0319 11.2367 59.6728 9.84061 59.2061 9.25857C55.5698 4.68429 50.6572 3.51622 46.5441 3.48822L46.5462 3.49022ZM33.5778 4.17626C30.388 4.18626 28.093 5.13632 26.352 6.56241C24.5521 8.0425 23.3489 10.0526 22.5676 12.1248C21.6261 14.5729 21.2994 16.9471 21.1716 18.5632L21.2142 18.5412C22.178 18.0111 23.4442 17.4691 24.8078 17.1671C26.1613 16.853 27.6304 16.759 28.9493 17.2711C30.2825 17.7691 31.3701 18.9672 31.7719 20.7693C33.6773 29.4578 31.1814 32.688 30.2622 35.1242C29.9132 36.0102 29.6068 36.9063 29.3633 37.8223C29.4789 37.8003 29.5966 37.7683 29.7123 37.7583C30.3677 37.7083 30.873 37.9163 31.1712 38.0404C32.1026 38.4244 32.7357 39.2164 33.0847 40.1225C33.1679 40.3625 33.2308 40.6105 33.2735 40.8825C33.3059 40.9865 33.3282 41.1005 33.3282 41.2166C33.2227 44.5388 33.2308 47.863 33.3587 51.1852C33.4236 52.6233 33.519 53.8833 33.6346 54.8834C33.7503 55.8735 33.9086 56.6335 34.0161 56.8935C34.3631 57.7476 34.8704 58.8616 35.7916 59.6217C36.7007 60.3837 38.0095 60.8838 40.41 60.3837C42.4899 59.9357 43.7703 59.3297 44.6245 58.4556C45.4829 57.5696 45.9881 56.3515 46.3148 54.4874C46.812 51.6852 47.7941 43.5587 47.9118 42.0386C47.861 40.8805 48.0274 39.9965 48.4089 39.3184C48.7884 38.6304 49.3809 38.2044 49.9003 37.9744C50.152 37.8603 50.3955 37.7883 50.5963 37.7243C50.3853 37.4343 50.1641 37.1423 49.9409 36.8603C49.2023 35.9742 48.5875 34.9862 48.133 33.9341C47.9219 33.4941 47.6886 33.056 47.4349 32.64C47.0778 32.006 46.6233 31.2019 46.1464 30.2959C45.1947 28.5038 44.1599 26.3176 43.6201 24.1915C43.0824 22.0654 43.0093 19.8692 44.3831 18.3271C45.5985 16.9511 47.7434 16.381 50.9433 16.703C50.848 16.421 50.7972 16.181 50.6369 15.817C49.9085 14.1289 48.9568 12.5448 47.8144 11.1067C45.0973 7.68048 40.69 4.28227 33.8964 4.16826L33.5778 4.17626ZM15.6137 4.31227C15.2749 4.31227 14.9258 4.32227 14.589 4.34427C11.8517 4.50228 9.27261 5.28033 7.42202 7.20845C5.57346 9.14657 4.36003 12.3028 4.62179 17.5431C4.67658 18.5431 5.10879 21.3133 5.85754 24.6155C6.61036 27.9197 7.67567 31.806 8.95606 35.2422C10.2324 38.6684 11.7786 41.6586 13.2579 43.0747C13.9965 43.7727 14.6397 44.0647 15.2221 44.0447C15.8045 44.0127 16.5126 43.6787 17.3791 42.6586C18.9537 40.7845 20.5831 38.9704 22.2734 37.2003C19.8404 35.1062 18.6473 31.942 19.1242 28.7938C19.3981 26.8257 19.4407 24.9795 19.3981 23.5215C19.3677 22.1054 19.2703 21.1693 19.2703 20.5753C19.2703 20.5533 19.2703 20.5433 19.2703 20.5213V20.5113L19.2601 20.4933C19.2601 17.4191 19.812 14.3789 20.8672 11.4927C21.6281 9.50059 22.7503 7.49246 24.4385 5.85436C22.7807 5.31233 19.8303 4.50228 16.6405 4.34427C16.3016 4.32227 15.9506 4.31227 15.6137 4.31227ZM49.1556 18.3951C47.3193 18.4271 46.2925 18.8972 45.7446 19.4992C44.9817 20.3653 44.9086 21.8854 45.3855 23.7615C45.8583 25.6356 46.8444 27.7297 47.7636 29.4718C48.2182 30.3459 48.6626 31.1279 49.0197 31.762C49.391 32.408 49.6548 32.856 49.8131 33.2521C49.9612 33.6061 50.1317 33.9181 50.3001 34.2101C51.0083 32.73 51.1361 31.2819 51.061 29.7618C50.9657 27.8877 50.5233 25.9696 50.5963 24.0335C50.6714 21.7613 51.126 20.2813 51.1584 18.5311C50.501 18.4491 49.8253 18.3951 49.1597 18.3951H49.1556ZM26.8796 18.7112C26.3195 18.7112 25.7595 18.7832 25.2096 18.9092C24.1199 19.1712 23.0749 19.5652 22.0908 20.1072C21.7641 20.2833 21.4475 20.4833 21.1513 20.7133L21.0863 20.7633C21.1087 21.1613 21.1817 22.0974 21.2142 23.4935C21.2467 25.0136 21.2142 26.9497 20.92 29.0458C20.2645 33.6081 23.6248 37.3803 27.5675 37.3903C27.8008 36.4523 28.1782 35.5022 28.5597 34.5041C29.6575 31.586 31.8145 29.4618 29.9964 21.1493C29.7021 19.7952 29.1096 19.2432 28.2939 18.9312C27.8394 18.7732 27.3666 18.7012 26.8796 18.7132V18.7112ZM48.3014 19.2512H48.4394C48.6078 19.2612 48.7782 19.2732 48.9243 19.3132C49.0623 19.3452 49.1901 19.3872 49.2957 19.4592C49.4012 19.5212 49.4742 19.6252 49.4965 19.7492V19.7712C49.4965 19.8972 49.4641 20.0212 49.4012 20.1372C49.318 20.2813 49.2226 20.4173 49.1069 20.5313C48.831 20.8333 48.4596 21.0333 48.0599 21.0933C47.6683 21.1473 47.2787 21.0433 46.95 20.8233C46.8221 20.7273 46.6963 20.6233 46.6009 20.5093C46.5056 20.4153 46.4528 20.2913 46.4305 20.1652C46.4224 20.0432 46.4528 19.9172 46.536 19.8232C46.6334 19.7272 46.7389 19.6452 46.8546 19.5832C47.1163 19.4372 47.4654 19.3332 47.8692 19.2792C48.0153 19.2612 48.1634 19.2492 48.3014 19.2392V19.2512ZM27.1413 19.6992C27.2793 19.6992 27.4396 19.7092 27.5878 19.7292C28.0098 19.7932 28.369 19.8972 28.6531 20.0632C28.7911 20.1272 28.9189 20.2313 29.0122 20.3453C29.1177 20.4713 29.1685 20.6253 29.1604 20.7933C29.1279 20.9473 29.063 21.0953 28.9574 21.2093C28.8418 21.3453 28.716 21.4593 28.5678 21.5533C28.2188 21.8034 27.7866 21.9074 27.3524 21.8554C26.9161 21.7834 26.5164 21.5753 26.2221 21.2533C26.0943 21.1173 25.9888 20.9713 25.9036 20.8153C25.8082 20.6693 25.7676 20.5033 25.7879 20.3353C25.8305 20.0552 26.074 19.8972 26.3074 19.8152C26.5732 19.7292 26.8573 19.7012 27.1413 19.7112V19.6992ZM51.6515 39.2824H51.6414C51.2518 39.4284 50.9251 39.4824 50.6491 39.6085C50.365 39.7125 50.1398 39.9205 50.0059 40.1785C49.8253 40.4825 49.6893 41.0245 49.7299 41.9486C49.8456 42.0346 49.9835 42.0946 50.1337 42.1386C50.5882 42.2746 51.3695 42.3686 52.2359 42.3566C53.9587 42.3346 56.0832 41.9406 57.2134 41.4186C58.1326 41.0025 58.9991 40.4405 59.76 39.7845C55.9878 40.5445 53.8653 40.3465 52.5525 39.8165C52.2359 39.6805 51.9275 39.5024 51.6515 39.2824ZM29.9233 39.5324H29.8685C29.7224 39.5424 29.5195 39.5965 29.1076 40.0345C28.1661 41.0745 27.8394 41.7306 27.0683 42.3366C26.2871 42.9507 25.2826 43.2747 23.2636 43.6807C22.6305 43.8067 22.2592 43.9507 22.0157 44.0647C22.0888 44.1287 22.0888 44.1507 22.2044 44.2007C22.5027 44.3688 22.8801 44.5048 23.1886 44.5868C24.055 44.7948 25.4693 45.0448 26.9608 44.7948C28.44 44.5448 29.9822 43.8447 31.3052 42.0246C31.5385 41.7126 31.5568 41.2426 31.3681 40.7425C31.1794 40.2545 30.7654 39.8165 30.4813 39.7025C30.3007 39.6165 30.11 39.5665 29.9213 39.5345L29.9233 39.5324Z" fill="url(#paint0_linear_630_42)"/>
<defs>
<linearGradient id="paint0_linear_630_42" x1="1" y1="64" x2="64.9921" y2="1.00781" gradientUnits="userSpaceOnUse">
<stop stop-color="#52719B"/>
<stop offset="0.5" stop-color="#7252FF"/>
<stop offset="1" stop-color="#DC52FF"/>
</linearGradient>
</defs>
</svg>
