<svg width="64" height="64" viewBox="0 0 64 64" fill="none" xmlns="http://www.w3.org/2000/svg">
<g clip-path="url(#clip0_625_59)">
<path d="M32 0C49.6 0 64 14.4 64 32C64 49.6 49.6 64 32 64C14.4 64 0 49.6 0 32C0 14.4 14.4 0 32 0ZM25.6 42.6C26 44.4 26 46 25.6 47.4L25.4 48C25.4 48.2 25.2 48.4 25.2 48.4C24.8 49.2 24.4 49.8 23.8 50.6C22 52.6 19.4 53.4 18.2 52.8C17 52.2 17.6 49.2 19.8 47C22.2 44.6 25.4 43 25.4 43L25.6 42.6ZM52 13.6C50.6 8 41.2 6 32.2 9.2C27 11.2 21.2 14.2 17 18C12 22.6 11.4 26.6 11.6 28.2C12.8 34 20.8 38 24.2 40.8C23.2 41.2 16 44.8 14.4 48.6C12.6 52.6 14.6 55.4 16 55.6C20.2 56.8 24.6 54.6 26.8 51.2C29 47.8 28.8 43.6 27.8 41.4C29.2 41 30.6 40.8 32.6 41.2C38.2 41.8 39.4 45.4 39 46.8C38.6 48.2 37.6 49 37.2 49.4C36.8 49.6 36.6 49.8 36.8 49.8C36.8 50 37 50 37.4 50C37.8 50 40.4 48.8 40.4 46C40.6 42.6 37.2 38.8 31.4 38.8C29 38.8 27.4 39 26.4 39.4C26.4 39.2 26.2 39.2 26.2 39.2C22.6 35.4 16 32.6 16.2 27.4C16.2 25.6 17 20.6 29 14.6C38.8 9.6 46.8 11 48.2 14C50.2 18.2 44 26.2 33.8 27.4C29.8 27.8 27.8 26.4 27.4 25.8C26.8 25.2 26.8 25.2 26.6 25.2C26.2 25.4 26.4 25.8 26.6 26.2C27 27 28.2 28.4 30.4 29.2C32.2 29.8 36.8 30.2 42.4 28C48.6 25.6 53.4 19 52 13.4V13.6Z" fill="url(#paint0_linear_625_59)"/>
</g>
<defs>
<linearGradient id="paint0_linear_625_59" x1="1.3487e-06" y1="64" x2="64" y2="1.3487e-06" gradientUnits="userSpaceOnUse">
<stop stop-color="#52719B"/>
<stop offset="0.5" stop-color="#7252FF"/>
<stop offset="1" stop-color="#DC52FF"/>
</linearGradient>
<clipPath id="clip0_625_59">
<rect width="64" height="64" fill="white"/>
</clipPath>
</defs>
</svg>
