<svg width="64" height="64" viewBox="0 0 64 64" fill="none" xmlns="http://www.w3.org/2000/svg">
<path d="M31.5 0C44.2787 4.34247e-05 54.6384 3.96736 54.6387 8.86133V55.1387L54.6309 55.3672C54.3137 60.1555 44.0791 64 31.5 64C18.9211 63.9999 8.68624 60.1554 8.36914 55.3672L8.36133 55.1387V8.86133C8.36163 3.96736 18.7213 4.35385e-05 31.5 0ZM39.0303 30.5234C38.3034 30.5234 37.6454 30.6444 37.0576 30.8867C36.4699 31.129 35.9694 31.4719 35.5566 31.916C35.1483 32.3602 34.8318 32.8972 34.6074 33.5254C34.3877 34.1535 34.2783 34.8534 34.2783 35.625C34.2783 36.3473 34.3876 37.0068 34.6074 37.6035C34.8273 38.2003 35.1368 38.7147 35.5361 39.1455C35.9355 39.5718 36.4181 39.9038 36.9834 40.1416C37.5488 40.3794 38.1795 40.498 38.875 40.498C39.1442 40.498 39.4026 40.4802 39.6494 40.4443C39.896 40.4084 40.1336 40.3587 40.3623 40.2959L42.0859 41.6357H44.5225L41.7217 39.6162C42.3005 39.181 42.7498 38.6069 43.0684 37.8936C43.3869 37.1757 43.5459 36.3408 43.5459 35.3896C43.5459 34.6717 43.4367 34.0138 43.2168 33.417C43.0014 32.8203 42.6956 32.3091 42.3008 31.8828C41.9059 31.4521 41.4304 31.1177 40.874 30.8799C40.3177 30.6421 39.7032 30.5235 39.0303 30.5234ZM30.4951 30.5234C30.0509 30.5234 29.6157 30.5769 29.1895 30.6846C28.7632 30.7878 28.3815 30.9491 28.0449 31.1689C27.7129 31.3843 27.4437 31.6606 27.2373 31.9971C27.0354 32.3291 26.9346 32.7217 26.9346 33.1748C26.9346 33.5428 26.9927 33.864 27.1094 34.1377C27.2305 34.4113 27.3943 34.6581 27.6006 34.8779C27.8115 35.0933 28.0591 35.2902 28.3418 35.4697C28.6245 35.6492 28.9293 35.827 29.2568 36.002C29.5619 36.141 29.8466 36.2761 30.1113 36.4062C30.3805 36.5319 30.6141 36.6637 30.8115 36.8027C31.009 36.9418 31.1618 37.0971 31.2695 37.2676C31.3815 37.4335 31.4375 37.6308 31.4375 37.8594C31.4375 38.2857 31.2715 38.6116 30.9395 38.8359C30.6119 39.0602 30.1114 39.1719 29.4385 39.1719C29.2455 39.1719 29.0345 39.1517 28.8057 39.1113C28.5769 39.0709 28.3479 39.0151 28.1191 38.9434C27.8904 38.8671 27.6731 38.7746 27.4668 38.667C27.2649 38.5593 27.0895 38.4383 26.9414 38.3037V39.9531C27.0759 40.0383 27.2531 40.1144 27.4727 40.1816C27.6924 40.2489 27.9262 40.3047 28.1729 40.3496C28.4196 40.399 28.6602 40.4356 28.8936 40.458C29.1312 40.4849 29.3307 40.498 29.4922 40.498C29.9768 40.498 30.4368 40.4507 30.8721 40.3564C31.3073 40.2622 31.6914 40.1103 32.0234 39.8994C32.3599 39.6885 32.6268 39.4146 32.8242 39.0781C33.0216 38.7417 33.1201 38.3288 33.1201 37.8398C33.1201 37.4764 33.0526 37.1528 32.918 36.8701C32.7879 36.5831 32.6086 36.3231 32.3799 36.0898C32.1556 35.8566 31.8932 35.6431 31.5928 35.4502C31.2967 35.2573 30.98 35.0734 30.6436 34.8984C30.3161 34.7549 30.0266 34.6221 29.7754 34.501C29.5287 34.3754 29.3176 34.2473 29.1426 34.1172C28.9721 33.9871 28.8417 33.8436 28.752 33.6865C28.6622 33.5295 28.6172 33.3433 28.6172 33.1279C28.6172 32.8991 28.6753 32.7035 28.792 32.542C28.9086 32.3805 29.0593 32.2487 29.2432 32.1455C29.4316 32.0423 29.6426 31.9677 29.876 31.9229C30.1138 31.878 30.352 31.8555 30.5898 31.8555C31.4512 31.8555 32.1558 32.0534 32.7031 32.4482V30.8662C32.2409 30.6374 31.5047 30.5234 30.4951 30.5234ZM13.2842 30.6846V32.0439H16.0508V40.3369H17.6533V32.0439H20.4258V30.6846H13.2842ZM45.3164 30.6846V40.3369H50.6602V38.9834H46.918V30.6846H45.3164ZM38.9492 31.9297C39.4022 31.9297 39.8082 32.0105 40.167 32.1719C40.5305 32.3334 40.8386 32.5693 41.0898 32.8789C41.341 33.184 41.5334 33.5612 41.668 34.0098C41.8026 34.4584 41.8701 34.9697 41.8701 35.5439C41.8701 36.1048 41.8002 36.6052 41.6611 37.0449C41.5221 37.4846 41.3227 37.857 41.0625 38.1621C40.8068 38.4627 40.4948 38.6939 40.127 38.8555C39.759 39.017 39.344 39.0976 38.8818 39.0977C38.4467 39.0977 38.0493 39.0132 37.6904 38.8428C37.3315 38.6678 37.0243 38.4248 36.7686 38.1152C36.5128 37.8011 36.3125 37.4241 36.1689 36.9844C36.0299 36.5448 35.961 36.0581 35.9609 35.5244C35.9609 34.986 36.0322 34.4964 36.1758 34.0566C36.3239 33.6169 36.5302 33.2399 36.7949 32.9258C37.0596 32.6072 37.3739 32.3629 37.7373 32.1924C38.1053 32.0174 38.5095 31.9297 38.9492 31.9297ZM21.6172 35.9951V37.1465H25.292V35.9951H21.6172ZM31.5 3.93848C21.4403 3.93851 13.2846 6.1425 13.2842 8.86133C13.2842 8.93792 13.2909 9.0141 13.3037 9.08984C13.3399 9.30429 13.4269 9.51525 13.5615 9.72168C13.6292 9.82547 13.7094 9.92786 13.8008 10.0293C13.8195 10.0501 13.8387 10.0711 13.8584 10.0918L13.9756 10.209C14.1801 10.4036 14.4279 10.5934 14.7158 10.7773C15.6613 11.3815 17.0407 11.9236 18.748 12.376C19.1211 12.4748 19.5098 12.5702 19.9131 12.6602C21.2626 12.9612 22.7756 13.2106 24.4102 13.3975C25.4997 13.522 26.6435 13.619 27.8291 13.6846C28.4219 13.7174 29.0254 13.742 29.6377 13.7588C30.2499 13.7756 30.8714 13.7842 31.5 13.7842C39.6101 13.7842 46.4803 12.3489 48.8398 10.3691C48.9971 10.2371 49.1358 10.1044 49.252 9.96777C49.318 9.89008 49.3784 9.81245 49.4307 9.7334C49.591 9.49084 49.6852 9.24175 49.709 8.98828L49.7158 8.86133C49.7154 6.14248 41.5598 3.93848 31.5 3.93848Z" fill="url(#paint0_linear_633_54)"/>
<defs>
<linearGradient id="paint0_linear_633_54" x1="8.36133" y1="64" x2="69.1386" y2="20.0529" gradientUnits="userSpaceOnUse">
<stop stop-color="#52719B"/>
<stop offset="0.5" stop-color="#7252FF"/>
<stop offset="1" stop-color="#DC52FF"/>
</linearGradient>
</defs>
</svg>
