<svg width="64" height="64" viewBox="0 0 64 64" fill="none" xmlns="http://www.w3.org/2000/svg">
<g clip-path="url(#clip0_611_18)">
<path d="M46.8858 0.000201827C45.8752 -0.00985661 44.8847 0.35627 44.1342 1.04829C44.0922 1.09054 44.0402 1.13278 43.9981 1.17503L22.7455 24.8023L10.3321 14.5769L9.24749 13.6334C8.48704 13.0037 7.43441 12.8368 6.51587 13.225C6.50586 13.225 6.49586 13.2351 6.48385 13.2351L1.63697 15.2468C1.57494 15.279 1.50089 15.3091 1.43885 15.3413C1.38682 15.3735 1.3448 15.3936 1.30277 15.4137C1.27075 15.4339 1.24074 15.456 1.20872 15.4761C1.16669 15.5083 1.11466 15.5385 1.07264 15.5707C1.05263 15.5908 1.02061 15.6129 1.00059 15.633C0.958569 15.6652 0.916544 15.6954 0.886526 15.7276C0.844501 15.7598 0.814484 15.7899 0.782465 15.8221C0.762453 15.8422 0.730434 15.8744 0.698415 15.9167C0.666396 15.9489 0.636378 15.979 0.614365 16.0112C0.582346 16.0535 0.552328 16.0957 0.520309 16.138C0.500297 16.1581 0.478284 16.1903 0.458272 16.2224C0.426253 16.2647 0.396235 16.317 0.364216 16.3592C0.35421 16.3914 0.332197 16.4216 0.312185 16.4538C0.292173 16.496 0.27016 16.5383 0.250149 16.5906C0.230137 16.6328 0.21813 16.663 0.198118 16.7052C0.188112 16.7475 0.166099 16.7897 0.156093 16.832C0.136081 16.8742 0.124074 16.9165 0.114068 16.9587C0.0940559 17.001 0.0820487 17.0533 0.0720428 17.1056C0.0620368 17.1378 0.0520309 17.1679 0.0400238 17.2102C0.0400238 17.2524 0.0300178 17.3047 0.0200119 17.357C0.0200119 17.3993 0.0100059 17.4415 0.0100059 17.4938C1.86265e-09 17.5662 0 17.6407 0 17.7131V46.2951C0 47.3734 0.646384 48.3491 1.63697 48.7575L6.48385 50.8114C7.4124 51.1996 8.48504 51.0206 9.24549 50.3708L10.3301 49.4273L22.7435 39.2019L43.9961 62.8292C44.0582 62.8916 44.1322 62.9559 44.1942 63.0082C44.2463 63.0505 44.2983 63.1028 44.3503 63.145C44.3924 63.1873 44.4444 63.2175 44.4964 63.2597C44.5585 63.3019 44.6105 63.3321 44.6625 63.3744C44.7246 63.4066 44.7886 63.4468 44.8406 63.479C44.9027 63.5112 44.9547 63.5413 45.0187 63.5735C45.0828 63.6057 45.1328 63.6258 45.1968 63.658C45.2589 63.6902 45.3229 63.7103 45.3849 63.7304C45.447 63.7626 45.521 63.7827 45.5831 63.8029C45.6351 63.823 45.6971 63.835 45.7612 63.8552C45.8252 63.8753 45.8972 63.8974 45.9693 63.9075C46.0313 63.9175 46.0954 63.9396 46.1574 63.9497C46.2194 63.9598 46.2835 63.9698 46.3555 63.9698C46.4176 63.9799 46.4916 63.9899 46.5536 63.9899C46.6157 63.9899 46.6797 64 46.7518 64C46.8138 64 46.8878 64 46.9499 64C47.0219 64 47.096 63.9899 47.158 63.9899C47.22 63.9799 47.2841 63.9698 47.3361 63.9698C47.4202 63.9598 47.4922 63.9497 47.5763 63.9276C47.6283 63.9175 47.6803 63.9075 47.7323 63.8954C47.8044 63.8753 47.8784 63.8632 47.9505 63.833C48.0025 63.823 48.0645 63.8008 48.1286 63.7807C48.1926 63.7606 48.2547 63.7385 48.3167 63.7083C48.4007 63.6761 48.4728 63.6459 48.5568 63.6138L61.7427 57.2327C62.2229 57.0013 62.6592 56.6775 63.0034 56.2691C63.0975 56.1745 63.1695 56.0699 63.2536 55.9653C63.2536 55.9653 63.2536 55.9553 63.2636 55.9452C63.3356 55.8406 63.4097 55.7259 63.4717 55.6093C63.5337 55.5046 63.5858 55.4 63.6378 55.2954C63.6478 55.2753 63.6478 55.2632 63.6578 55.2431C63.6998 55.1486 63.7418 55.054 63.7719 54.9595C63.7819 54.9273 63.7919 54.8971 63.8039 54.8549C63.8359 54.7603 63.8659 54.6658 63.8879 54.5712C63.8979 54.539 63.9079 54.5089 63.9079 54.4767C63.928 54.3821 63.94 54.2876 63.96 54.2051C63.96 54.1629 63.97 54.1106 63.98 54.0683C63.98 53.9838 63.99 53.9114 63.99 53.8269C64 53.7545 64 53.68 64 53.6177V10.3986C64 10.3664 64 10.3362 64 10.3041C64 10.1773 63.99 10.0425 63.98 9.90575C63.8139 8.54383 62.9694 7.35895 61.7387 6.77355L48.5528 0.402539C48.0325 0.151078 47.4682 0.0142836 46.8958 0.00422521L46.8858 0.000201827ZM48.0005 18.377V45.6192L31.4707 31.9981L48.0005 18.377ZM7.99675 22.8087L16.2617 31.9981L7.99675 41.1875V22.8087Z" fill="url(#paint0_linear_611_18)"/>
</g>
<defs>
<linearGradient id="paint0_linear_611_18" x1="1.3487e-06" y1="64" x2="64" y2="1.3487e-06" gradientUnits="userSpaceOnUse">
<stop stop-color="#52719B"/>
<stop offset="0.5" stop-color="#7252FF"/>
<stop offset="1" stop-color="#DC52FF"/>
</linearGradient>
<clipPath id="clip0_611_18">
<rect width="64" height="64" fill="white"/>
</clipPath>
</defs>
</svg>
